<?xml version="1.0" standalone="no"?>
<!DOCTYPE svg PUBLIC "-//W3C//DTD SVG 20010904//EN"
 "http://www.w3.org/TR/2001/REC-SVG-20010904/DTD/svg10.dtd">
<svg version="1.0" xmlns="http://www.w3.org/2000/svg"
 width="512.000000pt" height="512.000000pt" viewBox="0 0 512.000000 512.000000"
 preserveAspectRatio="xMidYMid meet">

<g transform="translate(0.000000,512.000000) scale(0.100000,-0.100000)"
fill="#000000" stroke="none">
<path d="M1380 5109 c-514 -47 -985 -370 -1214 -834 -94 -190 -139 -350 -157
-565 -6 -71 -9 -546 -6 -1225 3 -982 5 -1120 20 -1200 19 -102 55 -231 90
-320 l23 -60 293 -3 294 -2 -17 22 c-37 52 -98 168 -125 238 -68 174 -65 111
-69 1315 -2 715 0 1128 7 1200 25 252 114 447 285 623 170 176 378 276 626
302 127 13 2133 13 2260 0 248 -26 456 -126 626 -302 171 -176 260 -371 285
-623 7 -72 9 -485 7 -1200 -4 -1204 -1 -1141 -69 -1315 -27 -70 -88 -186 -125
-238 l-17 -22 294 2 293 3 23 60 c35 89 71 218 90 320 15 80 17 218 20 1200 4
1118 1 1259 -32 1420 -91 445 -401 847 -810 1049 -184 92 -348 138 -550 156
-121 11 -2225 10 -2345 -1z"/>
<path d="M3798 4176 c-150 -43 -248 -205 -218 -360 47 -248 348 -341 526 -162
191 190 71 512 -196 531 -39 3 -84 -1 -112 -9z"/>
<path d="M2375 3869 c-165 -29 -264 -59 -388 -120 -102 -49 -136 -71 -227
-140 -327 -249 -520 -639 -520 -1051 0 -197 45 -390 134 -573 243 -497 764
-791 1307 -737 312 31 569 149 793 363 256 244 406 594 406 947 0 345 -132
671 -374 920 -257 265 -587 403 -956 401 -69 -1 -147 -5 -175 -10z m390 -525
c372 -101 622 -443 602 -824 -19 -351 -242 -633 -587 -742 -64 -20 -96 -23
-220 -23 -124 0 -156 3 -220 23 -345 109 -568 391 -587 742 -22 415 275 776
692 844 57 9 260 -3 320 -20z"/>
</g>
</svg>
