<?xml version="1.0" standalone="no"?>
<!DOCTYPE svg PUBLIC "-//W3C//DTD SVG 20010904//EN"
 "http://www.w3.org/TR/2001/REC-SVG-20010904/DTD/svg10.dtd">
<svg version="1.0" xmlns="http://www.w3.org/2000/svg"
 width="512.000000pt" height="512.000000pt" viewBox="0 0 512.000000 512.000000"
 preserveAspectRatio="xMidYMid meet">

<g transform="translate(0.000000,512.000000) scale(0.100000,-0.100000)"
fill="#000000" stroke="none">
<path d="M2355 4338 c-596 -67 -1129 -445 -1405 -997 -237 -474 -236 -1100 2
-1576 255 -509 748 -883 1284 -975 528 -91 1046 37 1440 353 111 90 286 274
366 388 128 179 239 430 282 639 44 215 47 513 7 728 -88 468 -364 878 -782
1160 -327 221 -779 327 -1194 280z m1050 -1072 c40 -17 55 -42 55 -91 0 -55
-299 -1455 -319 -1495 -21 -41 -54 -56 -102 -46 -22 4 -117 68 -263 176 l-230
170 -35 -32 c-20 -18 -79 -75 -132 -125 -90 -87 -99 -93 -138 -93 -33 0 -43 4
-52 22 -5 13 -45 139 -88 281 -44 143 -83 263 -89 269 -5 5 -114 43 -242 83
-246 77 -278 94 -266 138 11 46 -89 4 1471 606 215 83 391 151 393 151 1 0 18
-6 37 -14z"/>
</g>
</svg>
